<svg id="SvgjsSvg1006" width="396" height="113" xmlns="http://www.w3.org/2000/svg" version="1.1" xmlns:xlink="http://www.w3.org/1999/xlink" xmlns:svgjs="http://svgjs.com/svgjs" viewBox="0 0 396.90000915527344 113.13333129882812"><defs id="SvgjsDefs1007"></defs><g id="SvgjsG1009" transform="rotate(0 60 55.31666564941406)"><svg width="120" viewBox="0 0 72.21829223632812 66.57799530029297" xmlns="http://www.w3.org/2000/svg" version="1.1" xmlns:xlink="http://www.w3.org/1999/xlink" xmlns:svgjs="http://svgjs.com/svgjs" preserveAspectRatio="none" height="110.63333129882812" x="0" y="0"><g><svg data-color="1" xmlns="http://www.w3.org/2000/svg" xmlns:xlink="http://www.w3.org/1999/xlink" version="1.1" baseProfile="tiny" x="0px" y="0px" viewBox="10.660322189331055 17.26099967956543 72.21829223632812 66.57799530029297" overflow="inherit" xml:space="preserve" width="72.21829223632812" height="66.57799530029297" fill="#f49531"><path d="M46.769,20.261c0.547,0,1.095,0.181,1.513,0.542l12.837,11.105c0.306,0.264,0.59,0.39,0.827,0.39  c0.413,0,0.686-0.381,0.686-1.082v-2.679c0-1.104,0.896-2,2-2h4.995c1.104,0,2,0.896,2,2v10.46c0,1.104,0.677,2.586,1.513,3.309  l6.235,5.394c0.836,0.723,0.617,1.309-0.487,1.309h-5.261c-1.104,0-2,0.793-2,1.771s0,1.771,0,1.771v26.289c0,1.104-0.896,2-2,2  H23.912c-1.104,0-2-0.896-2-2v-27.83c0-1.104-0.896-2-2-2h-5.261c-1.104,0-1.323-0.586-0.487-1.309l31.093-26.897  C45.674,20.441,46.222,20.261,46.769,20.261 M46.769,17.261c-1.291,0-2.525,0.452-3.475,1.272L12.201,45.432  c-2.044,1.767-1.537,3.692-1.333,4.24c0.204,0.549,1.08,2.337,3.783,2.337h4.261v26.83c0,2.757,2.243,5,5,5h45.715  c2.757,0,5-2.243,5-5V52.55v-0.541h4.261c2.703,0,3.579-1.788,3.783-2.337c0.204-0.548,0.711-2.474-1.334-4.241l-6.234-5.394  c-0.19-0.18-0.464-0.779-0.476-1.046V28.537c0-2.757-2.243-5-5-5h-4.995c-2.182,0-4.042,1.405-4.723,3.357l-9.664-8.36  C49.294,17.713,48.06,17.261,46.769,17.261L46.769,17.261z"></path></svg></g><defs id="SvgjsDefs1008"></defs></svg></g><g id="SvgjsG1011" transform="rotate(0 265.44166564941406 40.899993896484375)"><svg xmlns="http://www.w3.org/2000/svg" xmlns:xlink="http://www.w3.org/1999/xlink" width="262.8833312988281" viewBox="1.399999976158142 12 262.8800048828125 36.36000061035156" overflow="visible" style="overflow: visible;" transform="" version="1.1" xmlns:svgjs="http://svgjs.com/svgjs" preserveAspectRatio="none" height="36.366668701171875" x="134" y="22.716659545898438" fill="#000000" stroke="none"><path stroke="none" fill="#2c365d" d="M11.32 12.48L11.32 12.48Q11.32 12.28 11.46 12.14L11.46 12.14L11.46 12.14Q11.60 12 11.80 12L11.80 12L17.48 12L17.48 12Q17.68 12 17.82 12.14L17.82 12.14L17.82 12.14Q17.96 12.28 17.96 12.48L17.96 12.48L17.96 39.52L17.96 39.52Q17.96 39.72 17.82 39.86L17.82 39.86L17.82 39.86Q17.68 40 17.48 40L17.48 40L11.80 40L11.80 40Q11.60 40 11.46 39.86L11.46 39.86L11.46 39.86Q11.32 39.72 11.32 39.52L11.32 39.52L11.32 29.04L11.32 29.04Q11.32 28.84 11.12 28.84L11.12 28.84L8.24 28.84L8.24 28.84Q8.04 28.84 8.04 29.04L8.04 29.04L8.04 39.52L8.04 39.52Q8.04 39.72 7.90 39.86L7.90 39.86L7.90 39.86Q7.76 40 7.56 40L7.56 40L1.88 40L1.88 40Q1.68 40 1.54 39.86L1.54 39.86L1.54 39.86Q1.40 39.72 1.40 39.52L1.40 39.52L1.40 12.48L1.40 12.48Q1.40 12.28 1.54 12.14L1.54 12.14L1.54 12.14Q1.68 12 1.88 12L1.88 12L7.56 12L7.56 12Q7.76 12 7.90 12.14L7.90 12.14L7.90 12.14Q8.04 12.28 8.04 12.48L8.04 12.48L8.04 22.92L8.04 22.92Q8.04 23.12 8.24 23.12L8.24 23.12L11.12 23.12L11.12 23.12Q11.32 23.12 11.32 22.92L11.32 22.92L11.32 12.48ZM28.40 40.32L28.40 40.32Q24.52 40.32 22.40 38.50L22.40 38.50L22.40 38.50Q20.28 36.68 20.28 33.40L20.28 33.40L20.28 25.92L20.28 25.92Q20.28 22.76 22.44 20.88L22.44 20.88L22.44 20.88Q24.60 19 28.40 19L28.40 19L28.40 19Q32.20 19 34.32 20.88L34.32 20.88L34.32 20.88Q36.44 22.76 36.44 25.92L36.44 25.92L36.44 33.40L36.44 33.40Q36.44 36.68 34.34 38.50L34.34 38.50L34.34 38.50Q32.24 40.32 28.40 40.32L28.40 40.32ZM28.40 34.60L28.40 34.60Q29.04 34.60 29.42 34.12L29.42 34.12L29.42 34.12Q29.80 33.64 29.80 32.88L29.80 32.88L29.80 26.44L29.80 26.44Q29.80 25.64 29.42 25.16L29.42 25.16L29.42 25.16Q29.04 24.68 28.40 24.68L28.40 24.68L28.40 24.68Q27.76 24.68 27.34 25.16L27.34 25.16L27.34 25.16Q26.92 25.64 26.92 26.44L26.92 26.44L26.92 32.88L26.92 32.88Q26.92 33.64 27.32 34.12L27.32 34.12L27.32 34.12Q27.72 34.60 28.40 34.60L28.40 34.60ZM47.80 19.80L47.80 19.80Q47.80 19.60 47.94 19.46L47.94 19.46L47.94 19.46Q48.08 19.32 48.28 19.32L48.28 19.32L53.96 19.32L53.96 19.32Q54.16 19.32 54.30 19.46L54.30 19.46L54.30 19.46Q54.44 19.60 54.44 19.80L54.44 19.80L54.44 39.52L54.44 39.52Q54.44 39.72 54.30 39.86L54.30 39.86L54.30 39.86Q54.16 40 53.96 40L53.96 40L48.28 40L48.28 40Q48.08 40 47.94 39.86L47.94 39.86L47.94 39.86Q47.80 39.72 47.80 39.52L47.80 39.52L47.80 39L47.80 39Q47.80 38.88 47.72 38.86L47.72 38.86L47.72 38.86Q47.64 38.84 47.56 38.96L47.56 38.96L47.56 38.96Q46.96 39.72 46.10 40.02L46.10 40.02L46.10 40.02Q45.24 40.32 44.08 40.32L44.08 40.32L44.08 40.32Q41.68 40.32 40.08 38.84L40.08 38.84L40.08 38.84Q38.48 37.36 38.48 34.28L38.48 34.28L38.48 19.80L38.48 19.80Q38.48 19.60 38.62 19.46L38.62 19.46L38.62 19.46Q38.76 19.32 38.96 19.32L38.96 19.32L44.64 19.32L44.64 19.32Q44.84 19.32 44.98 19.46L44.98 19.46L44.98 19.46Q45.12 19.60 45.12 19.80L45.12 19.80L45.12 32.80L45.12 32.80Q45.12 34.60 46.40 34.60L46.40 34.60L46.40 34.60Q47.08 34.60 47.44 34.12L47.44 34.12L47.44 34.12Q47.80 33.64 47.80 32.76L47.80 32.76L47.80 19.80ZM64.28 40.32L64.28 40.32Q60.64 40.32 58.48 38.58L58.48 38.58L58.48 38.58Q56.32 36.84 56.32 34L56.32 34L56.32 33.76L56.32 33.76Q56.32 33.56 56.46 33.42L56.46 33.42L56.46 33.42Q56.60 33.28 56.80 33.28L56.80 33.28L62.16 33.28L62.16 33.28Q62.36 33.28 62.50 33.36L62.50 33.36L62.50 33.36Q62.64 33.44 62.64 33.56L62.64 33.56L62.64 33.84L62.64 33.84Q62.64 34.56 63.14 34.98L63.14 34.98L63.14 34.98Q63.64 35.40 64.24 35.40L64.24 35.40L64.24 35.40Q64.80 35.40 65.12 35.06L65.12 35.06L65.12 35.06Q65.44 34.72 65.44 34.20L65.44 34.20L65.44 34.20Q65.44 33.48 64.76 33.10L64.76 33.10L64.76 33.10Q64.08 32.72 62.60 32.24L62.60 32.24L61.72 31.96L61.72 31.96Q56.56 30.20 56.56 25.56L56.56 25.56L56.56 25.56Q56.56 22.52 58.60 20.76L58.60 20.76L58.60 20.76Q60.64 19 64.04 19L64.04 19L64.04 19Q67.52 19 69.60 20.90L69.60 20.90L69.60 20.90Q71.68 22.80 71.68 25.92L71.68 25.92L71.68 25.92Q71.68 26.36 71.20 26.36L71.20 26.36L66.00 26.36L66.00 26.36Q65.80 26.36 65.66 26.24L65.66 26.24L65.66 26.24Q65.52 26.12 65.52 25.96L65.52 25.96L65.52 25.56L65.52 25.56Q65.52 24.92 65.16 24.54L65.16 24.54L65.16 24.54Q64.80 24.16 64.20 24.16L64.20 24.16L64.20 24.16Q63.60 24.16 63.26 24.58L63.26 24.58L63.26 24.58Q62.92 25 62.92 25.56L62.92 25.56L62.92 25.56Q62.92 26.44 63.72 26.92L63.72 26.92L63.72 26.92Q64.52 27.40 65.96 27.88L65.96 27.88L65.96 27.88Q67.72 28.48 69.00 29.14L69.00 29.14L69.00 29.14Q70.28 29.80 71.20 31.02L71.20 31.02L71.20 31.02Q72.12 32.24 72.12 34.12L72.12 34.12L72.12 34.12Q72.12 37 69.98 38.66L69.98 38.66L69.98 38.66Q67.84 40.32 64.28 40.32L64.28 40.32ZM89.64 31.12L89.64 31.12Q89.64 31.32 89.50 31.46L89.50 31.46L89.50 31.46Q89.36 31.60 89.16 31.60L89.16 31.60L80.44 31.60L80.44 31.60Q80.24 31.60 80.24 31.80L80.24 31.80L80.24 32.88L80.24 32.88Q80.24 33.68 80.62 34.16L80.62 34.16L80.62 34.16Q81.00 34.64 81.64 34.64L81.64 34.64L81.64 34.64Q82.20 34.64 82.56 34.24L82.56 34.24L82.56 34.24Q82.92 33.84 83.04 33.24L83.04 33.24L83.04 33.24Q83.12 32.72 83.56 32.80L83.56 32.80L89.12 33.52L89.12 33.52Q89.56 33.60 89.52 34.04L89.52 34.04L89.52 34.04Q89.32 37.04 87.32 38.68L87.32 38.68L87.32 38.68Q85.32 40.32 81.64 40.32L81.64 40.32L81.64 40.32Q77.84 40.32 75.72 38.50L75.72 38.50L75.72 38.50Q73.60 36.68 73.60 33.40L73.60 33.40L73.60 25.92L73.60 25.92Q73.60 22.80 75.74 20.90L75.74 20.90L75.74 20.90Q77.88 19 81.64 19L81.64 19L81.64 19Q85.40 19 87.52 20.88L87.52 20.88L87.52 20.88Q89.64 22.76 89.64 25.92L89.64 25.92L89.64 31.12ZM81.64 24.68L81.64 24.68Q81.00 24.68 80.62 25.16L80.62 25.16L80.62 25.16Q80.24 25.64 80.24 26.44L80.24 26.44L80.24 27.40L80.24 27.40Q80.24 27.60 80.44 27.60L80.44 27.60L82.80 27.60L82.80 27.60Q83.00 27.60 83.00 27.40L83.00 27.40L83.00 26.44L83.00 26.44Q83.00 25.68 82.62 25.18L82.62 25.18L82.62 25.18Q82.24 24.68 81.64 24.68L81.64 24.68ZM102.04 19L102.04 19Q104.88 19 106.24 20.84L106.24 20.84L106.24 20.84Q107.60 22.68 107.60 26.04L107.60 26.04L107.60 39.52L107.60 39.52Q107.60 39.72 107.46 39.86L107.46 39.86L107.46 39.86Q107.32 40 107.12 40L107.12 40L101.44 40L101.44 40Q101.24 40 101.10 39.86L101.10 39.86L101.10 39.86Q100.96 39.72 100.96 39.52L100.96 39.52L100.96 26.48L100.96 26.48Q100.96 24.68 99.68 24.68L99.68 24.68L99.68 24.68Q99.00 24.68 98.64 25.16L98.64 25.16L98.64 25.16Q98.28 25.64 98.28 26.52L98.28 26.52L98.28 39.52L98.28 39.52Q98.28 39.72 98.14 39.86L98.14 39.86L98.14 39.86Q98.00 40 97.80 40L97.80 40L92.12 40L92.12 40Q91.92 40 91.78 39.86L91.78 39.86L91.78 39.86Q91.64 39.72 91.64 39.52L91.64 39.52L91.64 12.48L91.64 12.48Q91.64 12.28 91.78 12.14L91.78 12.14L91.78 12.14Q91.92 12 92.12 12L92.12 12L97.80 12L97.80 12Q98.00 12 98.14 12.14L98.14 12.14L98.14 12.14Q98.28 12.28 98.28 12.48L98.28 12.48L98.28 20.60L98.28 20.60Q98.28 20.68 98.36 20.68L98.36 20.68L98.36 20.68Q98.52 20.68 98.68 20.44L98.68 20.44L98.68 20.44Q99.88 19 102.04 19L102.04 19ZM117.76 40.32L117.76 40.32Q113.88 40.32 111.76 38.50L111.76 38.50L111.76 38.50Q109.64 36.68 109.64 33.40L109.64 33.40L109.64 25.92L109.64 25.92Q109.64 22.76 111.80 20.88L111.80 20.88L111.80 20.88Q113.96 19 117.76 19L117.76 19L117.76 19Q121.56 19 123.68 20.88L123.68 20.88L123.68 20.88Q125.80 22.76 125.80 25.92L125.80 25.92L125.80 33.40L125.80 33.40Q125.80 36.68 123.70 38.50L123.70 38.50L123.70 38.50Q121.60 40.32 117.76 40.32L117.76 40.32ZM117.76 34.60L117.76 34.60Q118.40 34.60 118.78 34.12L118.78 34.12L118.78 34.12Q119.16 33.64 119.16 32.88L119.16 32.88L119.16 26.44L119.16 26.44Q119.16 25.64 118.78 25.16L118.78 25.16L118.78 25.16Q118.40 24.68 117.76 24.68L117.76 24.68L117.76 24.68Q117.12 24.68 116.70 25.16L116.70 25.16L116.70 25.16Q116.28 25.64 116.28 26.44L116.28 26.44L116.28 32.88L116.28 32.88Q116.28 33.64 116.68 34.12L116.68 34.12L116.68 34.12Q117.08 34.60 117.76 34.60L117.76 34.60ZM128.32 40L128.32 40Q128.12 40 127.98 39.86L127.98 39.86L127.98 39.86Q127.84 39.72 127.84 39.52L127.84 39.52L127.84 12.48L127.84 12.48Q127.84 12.28 127.98 12.14L127.98 12.14L127.98 12.14Q128.12 12 128.32 12L128.32 12L134.00 12L134.00 12Q134.20 12 134.34 12.14L134.34 12.14L134.34 12.14Q134.48 12.28 134.48 12.48L134.48 12.48L134.48 39.52L134.48 39.52Q134.48 39.72 134.34 39.86L134.34 39.86L134.34 39.86Q134.20 40 134.00 40L134.00 40L128.32 40ZM145.84 12.48L145.84 12.48Q145.84 12.28 145.98 12.14L145.98 12.14L145.98 12.14Q146.12 12 146.32 12L146.32 12L152 12L152 12Q152.20 12 152.34 12.14L152.34 12.14L152.34 12.14Q152.48 12.28 152.48 12.48L152.48 12.48L152.48 39.52L152.48 39.52Q152.48 39.72 152.34 39.86L152.34 39.86L152.34 39.86Q152.20 40 152 40L152 40L146.32 40L146.32 40Q146.12 40 145.98 39.86L145.98 39.86L145.98 39.86Q145.84 39.72 145.84 39.52L145.84 39.52L145.84 38.72L145.84 38.72Q145.84 38.60 145.76 38.58L145.76 38.58L145.76 38.58Q145.68 38.56 145.60 38.64L145.60 38.64L145.60 38.64Q144.28 40.32 141.96 40.32L141.96 40.32L141.96 40.32Q136.48 40.32 136.48 33.40L136.48 33.40L136.48 25.92L136.48 25.92Q136.48 19 141.96 19L141.96 19L141.96 19Q144.28 19 145.60 20.76L145.60 20.76L145.60 20.76Q145.68 20.88 145.76 20.86L145.76 20.86L145.76 20.86Q145.84 20.84 145.84 20.72L145.84 20.72L145.84 12.48ZM144.44 34.64L144.44 34.64Q145.08 34.64 145.46 34.16L145.46 34.16L145.46 34.16Q145.84 33.68 145.84 32.88L145.84 32.88L145.84 26.44L145.84 26.44Q145.84 25.64 145.46 25.16L145.46 25.16L145.46 25.16Q145.08 24.68 144.44 24.68L144.44 24.68L144.44 24.68Q143.84 24.68 143.48 25.16L143.48 25.16L143.48 25.16Q143.12 25.64 143.12 26.44L143.12 26.44L143.12 32.88L143.12 32.88Q143.12 33.68 143.48 34.16L143.48 34.16L143.48 34.16Q143.84 34.64 144.44 34.64L144.44 34.64ZM179.96 32.20L179.96 32.20Q179.96 35.96 177.60 37.98L177.60 37.98L177.60 37.98Q175.24 40 171.60 40L171.60 40L163.52 40L163.52 40Q163.32 40 163.18 39.86L163.18 39.86L163.18 39.86Q163.04 39.72 163.04 39.52L163.04 39.52L163.04 12.48L163.04 12.48Q163.04 12.28 163.18 12.14L163.18 12.14L163.18 12.14Q163.32 12 163.52 12L163.52 12L170.56 12L170.56 12Q174.72 12 177.10 13.94L177.10 13.94L177.10 13.94Q179.48 15.88 179.48 19.76L179.48 19.76L179.48 19.76Q179.48 23.60 176.96 25.40L176.96 25.40L176.96 25.40Q176.76 25.52 176.92 25.64L176.92 25.64L176.92 25.64Q179.96 27.88 179.96 32.20L179.96 32.20ZM169.88 17.68L169.88 17.68Q169.68 17.68 169.68 17.88L169.68 17.88L169.68 23L169.68 23Q169.68 23.20 169.88 23.20L169.88 23.20L170.64 23.20L170.64 23.20Q171.76 23.20 172.36 22.50L172.36 22.50L172.36 22.50Q172.96 21.80 172.96 20.48L172.96 20.48L172.96 20.48Q172.96 19.12 172.36 18.40L172.36 18.40L172.36 18.40Q171.76 17.68 170.64 17.68L170.64 17.68L169.88 17.68ZM171.08 34.28L171.08 34.28Q172.12 34.28 172.72 33.48L172.72 33.48L172.72 33.48Q173.32 32.68 173.32 31.20L173.32 31.20L173.32 31.20Q173.32 29.72 172.72 28.84L172.72 28.84L172.72 28.84Q172.12 27.96 171.12 27.96L171.12 27.96L169.88 27.96L169.88 27.96Q169.68 27.96 169.68 28.16L169.68 28.16L169.68 34.08L169.68 34.08Q169.68 34.28 169.88 34.28L169.88 34.28L171.08 34.28ZM191.12 19.80L191.12 19.80Q191.12 19.60 191.26 19.46L191.26 19.46L191.26 19.46Q191.40 19.32 191.60 19.32L191.60 19.32L197.28 19.32L197.28 19.32Q197.48 19.32 197.62 19.46L197.62 19.46L197.62 19.46Q197.76 19.60 197.76 19.80L197.76 19.80L197.76 39.52L197.76 39.52Q197.76 39.72 197.62 39.86L197.62 39.86L197.62 39.86Q197.48 40 197.28 40L197.28 40L191.60 40L191.60 40Q191.40 40 191.26 39.86L191.26 39.86L191.26 39.86Q191.12 39.72 191.12 39.52L191.12 39.52L191.12 39L191.12 39Q191.12 38.88 191.04 38.86L191.04 38.86L191.04 38.86Q190.96 38.84 190.88 38.96L190.88 38.96L190.88 38.96Q190.28 39.72 189.42 40.02L189.42 40.02L189.42 40.02Q188.56 40.32 187.40 40.32L187.40 40.32L187.40 40.32Q185.00 40.32 183.40 38.84L183.40 38.84L183.40 38.84Q181.80 37.36 181.80 34.28L181.80 34.28L181.80 19.80L181.80 19.80Q181.80 19.60 181.94 19.46L181.94 19.46L181.94 19.46Q182.08 19.32 182.28 19.32L182.28 19.32L187.96 19.32L187.96 19.32Q188.16 19.32 188.30 19.46L188.30 19.46L188.30 19.46Q188.44 19.60 188.44 19.80L188.44 19.80L188.44 32.80L188.44 32.80Q188.44 34.60 189.72 34.60L189.72 34.60L189.72 34.60Q190.40 34.60 190.76 34.12L190.76 34.12L190.76 34.12Q191.12 33.64 191.12 32.76L191.12 32.76L191.12 19.80ZM209.24 12.48L209.24 12.48Q209.24 12.28 209.38 12.14L209.38 12.14L209.38 12.14Q209.52 12 209.72 12L209.72 12L215.40 12L215.40 12Q215.60 12 215.74 12.14L215.74 12.14L215.74 12.14Q215.88 12.28 215.88 12.48L215.88 12.48L215.88 39.52L215.88 39.52Q215.88 39.72 215.74 39.86L215.74 39.86L215.74 39.86Q215.60 40 215.40 40L215.40 40L209.72 40L209.72 40Q209.52 40 209.38 39.86L209.38 39.86L209.38 39.86Q209.24 39.72 209.24 39.52L209.24 39.52L209.24 38.72L209.24 38.72Q209.24 38.60 209.16 38.58L209.16 38.58L209.16 38.58Q209.08 38.56 209.00 38.64L209.00 38.64L209.00 38.64Q207.68 40.32 205.36 40.32L205.36 40.32L205.36 40.32Q199.88 40.32 199.88 33.40L199.88 33.40L199.88 25.92L199.88 25.92Q199.88 19 205.36 19L205.36 19L205.36 19Q207.68 19 209.00 20.76L209.00 20.76L209.00 20.76Q209.08 20.88 209.16 20.86L209.16 20.86L209.16 20.86Q209.24 20.84 209.24 20.72L209.24 20.72L209.24 12.48ZM207.84 34.64L207.84 34.64Q208.48 34.64 208.86 34.16L208.86 34.16L208.86 34.16Q209.24 33.68 209.24 32.88L209.24 32.88L209.24 26.44L209.24 26.44Q209.24 25.64 208.86 25.16L208.86 25.16L208.86 25.16Q208.48 24.68 207.84 24.68L207.84 24.68L207.84 24.68Q207.24 24.68 206.88 25.16L206.88 25.16L206.88 25.16Q206.52 25.64 206.52 26.44L206.52 26.44L206.52 32.88L206.52 32.88Q206.52 33.68 206.88 34.16L206.88 34.16L206.88 34.16Q207.24 34.64 207.84 34.64L207.84 34.64ZM227.36 19.80L227.36 19.80Q227.36 19.60 227.50 19.46L227.50 19.46L227.50 19.46Q227.64 19.32 227.84 19.32L227.84 19.32L233.52 19.32L233.52 19.32Q233.72 19.32 233.86 19.46L233.86 19.46L233.86 19.46Q234.00 19.60 234.00 19.80L234.00 19.80L234.00 38.80L234.00 38.80Q234.00 41.76 233.16 43.84L233.16 43.84L233.16 43.84Q232.32 45.92 230.10 47.14L230.10 47.14L230.10 47.14Q227.88 48.36 223.88 48.36L223.88 48.36L223.88 48.36Q223.24 48.36 221.72 48.28L221.72 48.28L221.72 48.28Q221.24 48.24 221.24 47.76L221.24 47.76L221.24 43L221.24 43Q221.24 42.48 221.76 42.56L221.76 42.56L222.68 42.60L222.68 42.60Q224.60 42.60 225.60 42.14L225.60 42.14L225.60 42.14Q226.60 41.68 226.96 40.86L226.96 40.86L226.96 40.86Q227.32 40.04 227.36 38.72L227.36 38.72L227.36 38.72Q227.36 38.56 227.26 38.54L227.26 38.54L227.26 38.54Q227.16 38.52 227.08 38.64L227.08 38.64L227.08 38.64Q225.84 40.24 223.48 40.24L223.48 40.24L223.48 40.24Q220.68 40.24 219.34 38.44L219.34 38.44L219.34 38.44Q218.00 36.64 218.00 33.32L218.00 33.32L218.00 25.92L218.00 25.92Q218.00 19 223.48 19L223.48 19L223.48 19Q225.92 19 227.12 20.80L227.12 20.80L227.12 20.80Q227.20 20.92 227.28 20.90L227.28 20.90L227.28 20.90Q227.36 20.88 227.36 20.76L227.36 20.76L227.36 19.80ZM225.96 34.52L225.96 34.52Q226.60 34.52 226.98 34.04L226.98 34.04L226.98 34.04Q227.36 33.56 227.36 32.80L227.36 32.80L227.36 26.44L227.36 26.44Q227.36 25.64 226.98 25.16L226.98 25.16L226.98 25.16Q226.60 24.68 225.96 24.68L225.96 24.68L225.96 24.68Q225.36 24.68 225.00 25.16L225.00 25.16L225.00 25.16Q224.64 25.64 224.64 26.44L224.64 26.44L224.64 32.80L224.64 32.80Q224.64 33.60 225.00 34.06L225.00 34.06L225.00 34.06Q225.36 34.52 225.96 34.52L225.96 34.52ZM252.08 31.12L252.08 31.12Q252.08 31.32 251.94 31.46L251.94 31.46L251.94 31.46Q251.80 31.60 251.60 31.60L251.60 31.60L242.88 31.60L242.88 31.60Q242.68 31.60 242.68 31.80L242.68 31.80L242.68 32.88L242.68 32.88Q242.68 33.68 243.06 34.16L243.06 34.16L243.06 34.16Q243.44 34.64 244.08 34.64L244.08 34.64L244.08 34.64Q244.64 34.64 245 34.24L245 34.24L245 34.24Q245.36 33.84 245.48 33.24L245.48 33.24L245.48 33.24Q245.56 32.72 246 32.80L246 32.80L251.56 33.52L251.56 33.52Q252 33.60 251.96 34.04L251.96 34.04L251.96 34.04Q251.76 37.04 249.76 38.68L249.76 38.68L249.76 38.68Q247.76 40.32 244.08 40.32L244.08 40.32L244.08 40.32Q240.28 40.32 238.16 38.50L238.16 38.50L238.16 38.50Q236.04 36.68 236.04 33.40L236.04 33.40L236.04 25.92L236.04 25.92Q236.04 22.80 238.18 20.90L238.18 20.90L238.18 20.90Q240.32 19 244.08 19L244.08 19L244.08 19Q247.84 19 249.96 20.88L249.96 20.88L249.96 20.88Q252.08 22.76 252.08 25.92L252.08 25.92L252.08 31.12ZM244.08 24.68L244.08 24.68Q243.44 24.68 243.06 25.16L243.06 25.16L243.06 25.16Q242.68 25.64 242.68 26.44L242.68 26.44L242.68 27.40L242.68 27.40Q242.68 27.60 242.88 27.60L242.88 27.60L245.24 27.60L245.24 27.60Q245.44 27.60 245.44 27.40L245.44 27.40L245.44 26.44L245.44 26.44Q245.44 25.68 245.06 25.18L245.06 25.18L245.06 25.18Q244.68 24.68 244.08 24.68L244.08 24.68ZM264.28 23.44L264.28 23.44Q264.28 23.64 264.14 23.78L264.14 23.78L264.14 23.78Q264 23.92 263.80 23.92L263.80 23.92L261.76 23.92L261.76 23.92Q261.56 23.92 261.56 24.12L261.56 24.12L261.56 32.68L261.56 32.68Q261.56 33.60 261.94 33.96L261.94 33.96L261.94 33.96Q262.32 34.32 263.08 34.28L263.08 34.28L263.28 34.28L263.28 34.28Q263.48 34.28 263.62 34.42L263.62 34.42L263.62 34.42Q263.76 34.56 263.76 34.76L263.76 34.76L263.76 39.52L263.76 39.52Q263.76 39.72 263.62 39.86L263.62 39.86L263.62 39.86Q263.48 40 263.28 40L263.28 40L261.48 40L261.48 40Q258.36 40 256.78 39.04L256.78 39.04L256.78 39.04Q255.20 38.08 255.20 35.32L255.20 35.32L255.20 24.12L255.20 24.12Q255.20 23.92 255.00 23.92L255.00 23.92L253.72 23.92L253.72 23.92Q253.52 23.92 253.38 23.78L253.38 23.78L253.38 23.78Q253.24 23.64 253.24 23.44L253.24 23.44L253.24 19.80L253.24 19.80Q253.24 19.60 253.38 19.46L253.38 19.46L253.38 19.46Q253.52 19.32 253.72 19.32L253.72 19.32L255.00 19.32L255.00 19.32Q255.20 19.32 255.20 19.12L255.20 19.12L255.20 14.68L255.20 14.68Q255.20 14.48 255.34 14.34L255.34 14.34L255.34 14.34Q255.48 14.20 255.68 14.20L255.68 14.20L261.08 14.20L261.08 14.20Q261.28 14.20 261.42 14.34L261.42 14.34L261.42 14.34Q261.56 14.48 261.56 14.68L261.56 14.68L261.56 19.12L261.56 19.12Q261.56 19.32 261.76 19.32L261.76 19.32L263.80 19.32L263.80 19.32Q264 19.32 264.14 19.46L264.14 19.46L264.14 19.46Q264.28 19.60 264.28 19.80L264.28 19.80L264.28 23.44Z" transform="rotate(0 132.8400024175644 30.18000030517578)"></path><defs id="SvgjsDefs1010"></defs></svg></g><g id="SvgjsG1013" transform="rotate(0 227.79166412353516 79.75)"><svg xmlns="http://www.w3.org/2000/svg" xmlns:xlink="http://www.w3.org/1999/xlink" width="187.5833282470703" viewBox="0.6499999761581421 5.260000228881836 187.58778381347656 16.34000015258789" overflow="visible" style="overflow: visible;" transform="" version="1.1" xmlns:svgjs="http://svgjs.com/svgjs" preserveAspectRatio="none" height="16.333343505859375" x="134" y="71.58332824707031" fill="#000000" stroke="none"><path stroke="none" fill="#2c365d" d="M6.57 5.40L6.57 5.40Q6.75 5.40 6.75 5.58L6.75 5.58L6.75 6.07L6.75 6.07Q6.75 6.25 6.57 6.25L6.57 6.25L4.18 6.25L4.18 6.25Q4.10 6.25 4.10 6.32L4.10 6.32L4.10 17.82L4.10 17.82Q4.10 18.00 3.92 18.00L3.92 18.00L3.33 18.00L3.33 18.00Q3.15 18.00 3.15 17.82L3.15 17.82L3.15 6.32L3.15 6.32Q3.15 6.25 3.08 6.25L3.08 6.25L0.83 6.25L0.83 6.25Q0.65 6.25 0.65 6.07L0.65 6.07L0.65 5.58L0.65 5.58Q0.65 5.40 0.83 5.40L0.83 5.40L6.57 5.40ZM12.05 8.78L12.05 8.78Q13.28 8.78 13.97 9.60L13.97 9.60L13.97 9.60Q14.66 10.42 14.66 11.79L14.66 11.79L14.66 17.82L14.66 17.82Q14.66 18.00 14.48 18.00L14.48 18.00L13.89 18.00L13.89 18.00Q13.71 18.00 13.71 17.82L13.71 17.82L13.71 17.17L13.71 17.17Q13.71 17.12 13.68 17.11L13.68 17.11L13.68 17.11Q13.65 17.10 13.62 17.14L13.62 17.14L13.62 17.14Q12.95 18.14 11.53 18.14L11.53 18.14L11.53 18.14Q10.58 18.14 9.88 17.59L9.88 17.59L9.88 17.59Q9.19 17.03 9.19 15.62L9.19 15.62L9.19 15.62Q9.19 14.13 10.02 13.43L10.02 13.43L10.02 13.43Q10.85 12.73 12.23 12.73L12.23 12.73L13.64 12.73L13.64 12.73Q13.71 12.73 13.71 12.65L13.71 12.65L13.71 11.83L13.71 11.83Q13.71 10.82 13.27 10.22L13.27 10.22L13.27 10.22Q12.83 9.63 12.03 9.63L12.03 9.63L12.03 9.63Q11.40 9.63 10.95 10.03L10.95 10.03L10.95 10.03Q10.49 10.42 10.41 11.05L10.41 11.05L10.41 11.05Q10.41 11.23 10.23 11.23L10.23 11.23L9.59 11.20L9.59 11.20Q9.50 11.20 9.45 11.14L9.45 11.14L9.45 11.14Q9.41 11.09 9.42 11.02L9.42 11.02L9.42 11.02Q9.53 10.01 10.27 9.40L10.27 9.40L10.27 9.40Q11.01 8.78 12.05 8.78L12.05 8.78ZM11.73 17.30L11.73 17.30Q12.54 17.30 13.12 16.78L13.12 16.78L13.12 16.78Q13.71 16.25 13.71 15.30L13.71 15.30L13.71 13.59L13.71 13.59Q13.71 13.52 13.64 13.52L13.64 13.52L12.23 13.52L12.23 13.52Q11.30 13.52 10.73 14.03L10.73 14.03L10.73 14.03Q10.16 14.54 10.16 15.55L10.16 15.55L10.16 15.55Q10.16 16.43 10.59 16.87L10.59 16.87L10.59 16.87Q11.03 17.30 11.73 17.30L11.73 17.30ZM18.04 18.00L18.04 18.00Q17.86 18.00 17.86 17.82L17.86 17.82L17.86 5.58L17.86 5.58Q17.86 5.40 18.04 5.40L18.04 5.40L18.63 5.40L18.63 5.40Q18.81 5.40 18.81 5.58L18.81 5.58L18.81 13.14L18.81 13.14Q18.81 13.18 18.85 13.19L18.85 13.19L18.85 13.19Q18.88 13.19 18.90 13.16L18.90 13.16L21.87 9.04L21.87 9.04Q21.94 8.93 22.09 8.93L22.09 8.93L22.72 8.93L22.72 8.93Q22.83 8.93 22.86 8.99L22.86 8.99L22.86 8.99Q22.90 9.05 22.83 9.14L22.83 9.14L21.08 11.59L21.08 11.59Q21.04 11.63 21.06 11.68L21.06 11.68L23.17 17.80L23.19 17.87L23.19 17.87Q23.19 18.00 23.02 18.00L23.02 18.00L22.39 18.00L22.39 18.00Q22.23 18.00 22.18 17.86L22.18 17.86L20.47 12.51L20.47 12.51Q20.45 12.40 20.36 12.49L20.36 12.49L18.85 14.58L18.85 14.58Q18.81 14.62 18.81 14.67L18.81 14.67L18.81 17.82L18.81 17.82Q18.81 18.00 18.63 18.00L18.63 18.00L18.04 18.00ZM31.08 13.63L31.08 13.63Q31.08 13.81 30.90 13.81L30.90 13.81L26.76 13.81L26.76 13.81Q26.69 13.81 26.69 13.88L26.69 13.88L26.69 15.41L26.69 15.41Q26.69 16.24 27.16 16.77L27.16 16.77L27.16 16.77Q27.64 17.30 28.40 17.30L28.40 17.30L28.40 17.30Q29.03 17.30 29.48 16.92L29.48 16.92L29.48 16.92Q29.93 16.54 30.07 15.93L30.07 15.93L30.07 15.93Q30.13 15.77 30.27 15.77L30.27 15.77L30.85 15.80L30.85 15.80Q30.92 15.80 30.97 15.84L30.97 15.84L30.97 15.84Q31.03 15.88 31.01 15.95L31.01 15.95L31.01 16.02L31.01 16.02Q30.83 17.01 30.14 17.58L30.14 17.58L30.14 17.58Q29.46 18.14 28.40 18.14L28.40 18.14L28.40 18.14Q27.21 18.14 26.47 17.40L26.47 17.40L26.47 17.40Q25.73 16.65 25.73 15.46L25.73 15.46L25.73 11.48L25.73 11.48Q25.73 10.30 26.47 9.54L26.47 9.54L26.47 9.54Q27.21 8.78 28.40 8.78L28.40 8.78L28.40 8.78Q29.60 8.78 30.34 9.54L30.34 9.54L30.34 9.54Q31.08 10.30 31.08 11.48L31.08 11.48L31.08 13.63ZM28.40 9.63L28.40 9.63Q27.64 9.63 27.16 10.16L27.16 10.16L27.16 10.16Q26.69 10.69 26.69 11.54L26.69 11.54L26.69 12.91L26.69 12.91Q26.69 12.98 26.76 12.98L26.76 12.98L30.05 12.98L30.05 12.98Q30.13 12.98 30.13 12.91L30.13 12.91L30.13 11.54L30.13 11.54Q30.13 10.69 29.65 10.16L29.65 10.16L29.65 10.16Q29.17 9.63 28.40 9.63L28.40 9.63ZM41.56 18.14L41.56 18.14Q40.24 18.14 39.44 17.33L39.44 17.33L39.44 17.33Q38.64 16.51 38.64 15.14L38.64 15.14L38.64 8.23L38.64 8.23Q38.64 6.88 39.44 6.07L39.44 6.07L39.44 6.07Q40.24 5.26 41.56 5.26L41.56 5.26L41.56 5.26Q42.89 5.26 43.69 6.07L43.69 6.07L43.69 6.07Q44.49 6.88 44.49 8.23L44.49 8.23L44.49 8.57L44.49 8.57Q44.49 8.66 44.44 8.71L44.44 8.71L44.44 8.71Q44.38 8.77 44.31 8.77L44.31 8.77L43.72 8.80L43.72 8.80Q43.54 8.80 43.54 8.62L43.54 8.62L43.54 8.17L43.54 8.17Q43.54 7.24 43.00 6.67L43.00 6.67L43.00 6.67Q42.46 6.10 41.56 6.10L41.56 6.10L41.56 6.10Q40.68 6.10 40.14 6.67L40.14 6.67L40.14 6.67Q39.60 7.24 39.60 8.17L39.60 8.17L39.60 15.21L39.60 15.21Q39.60 16.15 40.14 16.72L40.14 16.72L40.14 16.72Q40.68 17.30 41.56 17.30L41.56 17.30L41.56 17.30Q42.44 17.30 42.99 16.72L42.99 16.72L42.99 16.72Q43.54 16.15 43.54 15.21L43.54 15.21L43.54 14.80L43.54 14.80Q43.54 14.62 43.72 14.62L43.72 14.62L44.31 14.65L44.31 14.65Q44.49 14.65 44.49 14.83L44.49 14.83L44.49 15.14L44.49 15.14Q44.49 16.51 43.69 17.33L43.69 17.33L43.69 17.33Q42.89 18.14 41.56 18.14L41.56 18.14ZM50.14 18.14L50.14 18.14Q48.95 18.14 48.21 17.40L48.21 17.40L48.21 17.40Q47.47 16.65 47.47 15.46L47.47 15.46L47.47 11.48L47.47 11.48Q47.47 10.30 48.21 9.54L48.21 9.54L48.21 9.54Q48.95 8.78 50.14 8.78L50.14 8.78L50.14 8.78Q51.36 8.78 52.10 9.53L52.10 9.53L52.10 9.53Q52.84 10.28 52.84 11.48L52.84 11.48L52.84 15.46L52.84 15.46Q52.84 16.65 52.10 17.40L52.10 17.40L52.10 17.40Q51.36 18.14 50.14 18.14L50.14 18.14ZM50.14 17.30L50.14 17.30Q50.91 17.30 51.40 16.77L51.40 16.77L51.40 16.77Q51.88 16.24 51.88 15.41L51.88 15.41L51.88 11.54L51.88 11.54Q51.88 10.69 51.40 10.16L51.40 10.16L51.40 10.16Q50.91 9.63 50.14 9.63L50.14 9.63L50.14 9.63Q49.38 9.63 48.90 10.16L48.90 10.16L48.90 10.16Q48.43 10.69 48.43 11.54L48.43 11.54L48.43 15.41L48.43 15.41Q48.43 16.24 48.90 16.77L48.90 16.77L48.90 16.77Q49.38 17.30 50.14 17.30L50.14 17.30ZM58.97 8.80L58.97 8.80Q60.06 8.80 60.66 9.54L60.66 9.54L60.66 9.54Q61.25 10.28 61.25 11.61L61.25 11.61L61.25 17.82L61.25 17.82Q61.25 18.00 61.07 18.00L61.07 18.00L60.48 18.00L60.48 18.00Q60.30 18.00 60.30 17.82L60.30 17.82L60.30 11.70L60.30 11.70Q60.30 10.73 59.88 10.19L59.88 10.19L59.88 10.19Q59.45 9.65 58.68 9.65L58.68 9.65L58.68 9.65Q57.89 9.65 57.43 10.22L57.43 10.22L57.43 10.22Q56.97 10.80 56.97 11.81L56.97 11.81L56.97 17.82L56.97 17.82Q56.97 18.00 56.79 18.00L56.79 18.00L56.19 18.00L56.19 18.00Q56.01 18.00 56.01 17.82L56.01 17.82L56.01 9.11L56.01 9.11Q56.01 8.93 56.19 8.93L56.19 8.93L56.79 8.93L56.79 8.93Q56.97 8.93 56.97 9.11L56.97 9.11L56.97 9.81L56.97 9.81Q56.97 9.86 57.00 9.86L57.00 9.86L57.00 9.86Q57.04 9.86 57.06 9.81L57.06 9.81L57.06 9.81Q57.71 8.80 58.97 8.80L58.97 8.80ZM67.47 9.50L67.47 9.50Q67.47 9.68 67.29 9.68L67.29 9.68L65.85 9.68L65.85 9.68Q65.78 9.68 65.78 9.76L65.78 9.76L65.78 15.55L65.78 15.55Q65.78 16.45 66.09 16.80L66.09 16.80L66.09 16.80Q66.39 17.15 67.06 17.15L67.06 17.15L67.24 17.15L67.24 17.15Q67.42 17.15 67.42 17.33L67.42 17.33L67.42 17.82L67.42 17.82Q67.42 18.00 67.24 18.00L67.24 18.00L66.88 18.00L66.88 18.00Q65.87 18.00 65.36 17.53L65.36 17.53L65.36 17.53Q64.84 17.06 64.84 15.79L64.84 15.79L64.84 9.76L64.84 9.76Q64.84 9.68 64.77 9.68L64.77 9.68L64.03 9.68L64.03 9.68Q63.85 9.68 63.85 9.50L63.85 9.50L63.85 9.11L63.85 9.11Q63.85 8.93 64.03 8.93L64.03 8.93L64.77 8.93L64.77 8.93Q64.84 8.93 64.84 8.86L64.84 8.86L64.84 6.84L64.84 6.84Q64.84 6.66 65.02 6.66L65.02 6.66L65.60 6.66L65.60 6.66Q65.78 6.66 65.78 6.84L65.78 6.84L65.78 8.86L65.78 8.86Q65.78 8.93 65.85 8.93L65.85 8.93L67.29 8.93L67.29 8.93Q67.47 8.93 67.47 9.11L67.47 9.11L67.47 9.50ZM73.03 8.86L73.03 8.86Q73.48 8.86 73.80 9.04L73.80 9.04L73.80 9.04Q73.93 9.11 73.89 9.27L73.89 9.27L73.75 9.88L73.75 9.88Q73.69 10.04 73.51 9.97L73.51 9.97L73.51 9.97Q73.22 9.86 72.81 9.88L72.81 9.88L72.81 9.88Q72.09 9.90 71.64 10.60L71.64 10.60L71.64 10.60Q71.19 11.30 71.19 12.33L71.19 12.33L71.19 17.82L71.19 17.82Q71.19 18.00 71.01 18.00L71.01 18.00L70.42 18.00L70.42 18.00Q70.24 18.00 70.24 17.82L70.24 17.82L70.24 9.11L70.24 9.11Q70.24 8.93 70.42 8.93L70.42 8.93L71.01 8.93L71.01 8.93Q71.19 8.93 71.19 9.11L71.19 9.11L71.19 10.22L71.19 10.22Q71.19 10.28 71.23 10.28L71.23 10.28L71.23 10.28Q71.26 10.28 71.28 10.22L71.28 10.22L71.28 10.22Q71.53 9.58 71.97 9.22L71.97 9.22L71.97 9.22Q72.41 8.86 73.03 8.86L73.03 8.86ZM78.80 18.14L78.80 18.14Q77.61 18.14 76.87 17.40L76.87 17.40L76.87 17.40Q76.13 16.65 76.13 15.46L76.13 15.46L76.13 11.48L76.13 11.48Q76.13 10.30 76.87 9.54L76.87 9.54L76.87 9.54Q77.61 8.78 78.80 8.78L78.80 8.78L78.80 8.78Q80.02 8.78 80.76 9.53L80.76 9.53L80.76 9.53Q81.50 10.28 81.50 11.48L81.50 11.48L81.50 15.46L81.50 15.46Q81.50 16.65 80.76 17.40L80.76 17.40L80.76 17.40Q80.02 18.14 78.80 18.14L78.80 18.14ZM78.80 17.30L78.80 17.30Q79.57 17.30 80.06 16.77L80.06 16.77L80.06 16.77Q80.54 16.24 80.54 15.41L80.54 15.41L80.54 11.54L80.54 11.54Q80.54 10.69 80.06 10.16L80.06 10.16L80.06 10.16Q79.57 9.63 78.80 9.63L78.80 9.63L78.80 9.63Q78.04 9.63 77.56 10.16L77.56 10.16L77.56 10.16Q77.09 10.69 77.09 11.54L77.09 11.54L77.09 15.41L77.09 15.41Q77.09 16.24 77.56 16.77L77.56 16.77L77.56 16.77Q78.04 17.30 78.80 17.30L78.80 17.30ZM84.75 18.00L84.75 18.00Q84.57 18.00 84.57 17.82L84.57 17.82L84.57 5.58L84.57 5.58Q84.57 5.40 84.75 5.40L84.75 5.40L85.34 5.40L85.34 5.40Q85.52 5.40 85.52 5.58L85.52 5.58L85.52 17.82L85.52 17.82Q85.52 18.00 85.34 18.00L85.34 18.00L84.75 18.00ZM95.85 18.14L95.85 18.14Q94.67 18.14 93.93 17.40L93.93 17.40L93.93 17.40Q93.19 16.65 93.19 15.46L93.19 15.46L93.19 11.48L93.19 11.48Q93.19 10.30 93.93 9.54L93.93 9.54L93.93 9.54Q94.67 8.78 95.85 8.78L95.85 8.78L95.85 8.78Q97.08 8.78 97.82 9.53L97.82 9.53L97.82 9.53Q98.55 10.28 98.55 11.48L98.55 11.48L98.55 15.46L98.55 15.46Q98.55 16.65 97.82 17.40L97.82 17.40L97.82 17.40Q97.08 18.14 95.85 18.14L95.85 18.14ZM95.85 17.30L95.85 17.30Q96.63 17.30 97.11 16.77L97.11 16.77L97.11 16.77Q97.60 16.24 97.60 15.41L97.60 15.41L97.60 11.54L97.60 11.54Q97.60 10.69 97.11 10.16L97.11 10.16L97.11 10.16Q96.63 9.63 95.85 9.63L95.85 9.63L95.85 9.63Q95.10 9.63 94.62 10.16L94.62 10.16L94.62 10.16Q94.14 10.69 94.14 11.54L94.14 11.54L94.14 15.41L94.14 15.41Q94.14 16.24 94.62 16.77L94.62 16.77L94.62 16.77Q95.10 17.30 95.85 17.30L95.85 17.30ZM104.38 6.08L104.38 6.08Q103.60 6.08 103.32 6.60L103.32 6.60L103.32 6.60Q103.03 7.11 103.03 8.21L103.03 8.21L103.03 8.86L103.03 8.86Q103.03 8.93 103.10 8.93L103.10 8.93L104.58 8.93L104.58 8.93Q104.76 8.93 104.76 9.11L104.76 9.11L104.76 9.50L104.76 9.50Q104.76 9.68 104.58 9.68L104.58 9.68L103.10 9.68L103.10 9.68Q103.03 9.68 103.03 9.76L103.03 9.76L103.03 17.82L103.03 17.82Q103.03 18.00 102.85 18.00L102.85 18.00L102.25 18.00L102.25 18.00Q102.07 18.00 102.07 17.82L102.07 17.82L102.07 9.76L102.07 9.76Q102.07 9.68 102.00 9.68L102.00 9.68L101.25 9.68L101.25 9.68Q101.07 9.68 101.07 9.50L101.07 9.50L101.07 9.11L101.07 9.11Q101.07 8.93 101.25 8.93L101.25 8.93L102.00 8.93L102.00 8.93Q102.07 8.93 102.07 8.86L102.07 8.86L102.07 8.19L102.07 8.19Q102.07 6.68 102.60 5.97L102.60 5.97L102.60 5.97Q103.12 5.26 104.36 5.26L104.36 5.26L104.63 5.26L104.63 5.26Q104.81 5.26 104.81 5.44L104.81 5.44L104.79 5.90L104.79 5.90Q104.79 6.08 104.61 6.08L104.61 6.08L104.38 6.08ZM114.41 18.00L114.41 18.00Q114.23 18.00 114.23 17.82L114.23 17.82L114.23 12.24L114.23 12.24Q114.23 12.17 114.21 12.15L114.21 12.15L111.72 5.62L111.71 5.54L111.71 5.54Q111.71 5.40 111.87 5.40L111.87 5.40L112.50 5.40L112.50 5.40Q112.66 5.40 112.71 5.54L112.71 5.54L114.66 11.05L114.66 11.05Q114.68 11.09 114.71 11.09L114.71 11.09L114.71 11.09Q114.75 11.09 114.77 11.05L114.77 11.05L116.69 5.54L116.69 5.54Q116.75 5.40 116.91 5.40L116.91 5.40L117.54 5.40L117.54 5.40Q117.63 5.40 117.67 5.46L117.67 5.46L117.67 5.46Q117.72 5.53 117.68 5.62L117.68 5.62L115.20 12.15L115.20 12.15Q115.18 12.17 115.18 12.24L115.18 12.24L115.18 17.82L115.18 17.82Q115.18 18.00 115.00 18.00L115.00 18.00L114.41 18.00ZM123.06 18.14L123.06 18.14Q121.87 18.14 121.13 17.40L121.13 17.40L121.13 17.40Q120.39 16.65 120.39 15.46L120.39 15.46L120.39 11.48L120.39 11.48Q120.39 10.30 121.13 9.54L121.13 9.54L121.13 9.54Q121.87 8.78 123.06 8.78L123.06 8.78L123.06 8.78Q124.28 8.78 125.02 9.53L125.02 9.53L125.02 9.53Q125.76 10.28 125.76 11.48L125.76 11.48L125.76 15.46L125.76 15.46Q125.76 16.65 125.02 17.40L125.02 17.40L125.02 17.40Q124.28 18.14 123.06 18.14L123.06 18.14ZM123.06 17.30L123.06 17.30Q123.83 17.30 124.32 16.77L124.32 16.77L124.32 16.77Q124.80 16.24 124.80 15.41L124.80 15.41L124.80 11.54L124.80 11.54Q124.80 10.69 124.32 10.16L124.32 10.16L124.32 10.16Q123.83 9.63 123.06 9.63L123.06 9.63L123.06 9.63Q122.30 9.63 121.82 10.16L121.82 10.16L121.82 10.16Q121.35 10.69 121.35 11.54L121.35 11.54L121.35 15.41L121.35 15.41Q121.35 16.24 121.82 16.77L121.82 16.77L121.82 16.77Q122.30 17.30 123.06 17.30L123.06 17.30ZM133.09 9.11L133.09 9.11Q133.09 8.93 133.27 8.93L133.27 8.93L133.87 8.93L133.87 8.93Q134.05 8.93 134.05 9.11L134.05 9.11L134.05 17.82L134.05 17.82Q134.05 18.00 133.87 18.00L133.87 18.00L133.27 18.00L133.27 18.00Q133.09 18.00 133.09 17.82L133.09 17.82L133.09 17.17L133.09 17.17Q133.09 17.12 133.06 17.11L133.06 17.11L133.06 17.11Q133.04 17.10 133.00 17.14L133.00 17.14L133.00 17.14Q132.43 18.13 131.17 18.13L131.17 18.13L131.17 18.13Q130.09 18.13 129.46 17.47L129.46 17.47L129.46 17.47Q128.83 16.81 128.83 15.50L128.83 15.50L128.83 9.11L128.83 9.11Q128.83 8.93 129.01 8.93L129.01 8.93L129.60 8.93L129.60 8.93Q129.78 8.93 129.78 9.11L129.78 9.11L129.78 15.28L129.78 15.28Q129.78 16.27 130.20 16.78L130.20 16.78L130.20 16.78Q130.63 17.28 131.40 17.28L131.40 17.28L131.40 17.28Q132.19 17.28 132.64 16.70L132.64 16.70L132.64 16.70Q133.09 16.13 133.09 15.12L133.09 15.12L133.09 9.11ZM140.25 8.86L140.25 8.86Q140.70 8.86 141.02 9.04L141.02 9.04L141.02 9.04Q141.15 9.11 141.11 9.27L141.11 9.27L140.97 9.88L140.97 9.88Q140.91 10.04 140.73 9.97L140.73 9.97L140.73 9.97Q140.45 9.86 140.03 9.88L140.03 9.88L140.03 9.88Q139.31 9.90 138.86 10.60L138.86 10.60L138.86 10.60Q138.41 11.30 138.41 12.33L138.41 12.33L138.41 17.82L138.41 17.82Q138.41 18.00 138.23 18.00L138.23 18.00L137.64 18.00L137.64 18.00Q137.46 18.00 137.46 17.82L137.46 17.82L137.46 9.11L137.46 9.11Q137.46 8.93 137.64 8.93L137.64 8.93L138.23 8.93L138.23 8.93Q138.41 8.93 138.41 9.11L138.41 9.11L138.41 10.22L138.41 10.22Q138.41 10.28 138.45 10.28L138.45 10.28L138.45 10.28Q138.48 10.28 138.50 10.22L138.50 10.22L138.50 10.22Q138.75 9.58 139.19 9.22L139.19 9.22L139.19 9.22Q139.64 8.86 140.25 8.86L140.25 8.86ZM148.55 18.00L148.55 18.00Q148.37 18.00 148.37 17.82L148.37 17.82L148.37 5.58L148.37 5.58Q148.37 5.40 148.55 5.40L148.55 5.40L149.16 5.40L149.16 5.40Q149.30 5.40 149.36 5.54L149.36 5.54L151.52 10.80L151.52 10.80Q151.54 10.84 151.57 10.84L151.57 10.84L151.57 10.84Q151.61 10.84 151.63 10.80L151.63 10.80L153.79 5.54L153.79 5.54Q153.84 5.40 153.98 5.40L153.98 5.40L154.60 5.40L154.60 5.40Q154.78 5.40 154.78 5.58L154.78 5.58L154.78 17.82L154.78 17.82Q154.78 18.00 154.60 18.00L154.60 18.00L154.00 18.00L154.00 18.00Q153.82 18.00 153.82 17.82L153.82 17.82L153.82 7.83L153.82 7.83Q153.82 7.78 153.79 7.78L153.79 7.78L153.79 7.78Q153.75 7.78 153.73 7.81L153.73 7.81L151.79 12.46L151.79 12.46Q151.73 12.60 151.61 12.60L151.61 12.60L151.61 12.60Q151.46 12.60 151.41 12.46L151.41 12.46L149.41 7.81L149.41 7.81Q149.39 7.78 149.36 7.78L149.36 7.78L149.36 7.78Q149.32 7.78 149.32 7.83L149.32 7.83L149.32 17.82L149.32 17.82Q149.32 18.00 149.14 18.00L149.14 18.00L148.55 18.00ZM160.85 18.14L160.85 18.14Q159.66 18.14 158.93 17.40L158.93 17.40L158.93 17.40Q158.19 16.65 158.19 15.46L158.19 15.46L158.19 11.48L158.19 11.48Q158.19 10.30 158.93 9.54L158.93 9.54L158.93 9.54Q159.66 8.78 160.85 8.78L160.85 8.78L160.85 8.78Q162.08 8.78 162.81 9.53L162.81 9.53L162.81 9.53Q163.55 10.28 163.55 11.48L163.55 11.48L163.55 15.46L163.55 15.46Q163.55 16.65 162.81 17.40L162.81 17.40L162.81 17.40Q162.08 18.14 160.85 18.14L160.85 18.14ZM160.85 17.30L160.85 17.30Q161.63 17.30 162.11 16.77L162.11 16.77L162.11 16.77Q162.60 16.24 162.60 15.41L162.60 15.41L162.60 11.54L162.60 11.54Q162.60 10.69 162.11 10.16L162.11 10.16L162.11 10.16Q161.63 9.63 160.85 9.63L160.85 9.63L160.85 9.63Q160.10 9.63 159.62 10.16L159.62 10.16L159.62 10.16Q159.14 10.69 159.14 11.54L159.14 11.54L159.14 15.41L159.14 15.41Q159.14 16.24 159.62 16.77L159.62 16.77L159.62 16.77Q160.10 17.30 160.85 17.30L160.85 17.30ZM169.68 8.80L169.68 8.80Q170.78 8.80 171.37 9.54L171.37 9.54L171.37 9.54Q171.97 10.28 171.97 11.61L171.97 11.61L171.97 17.82L171.97 17.82Q171.97 18.00 171.79 18.00L171.79 18.00L171.19 18.00L171.19 18.00Q171.01 18.00 171.01 17.82L171.01 17.82L171.01 11.70L171.01 11.70Q171.01 10.73 170.59 10.19L170.59 10.19L170.59 10.19Q170.17 9.65 169.39 9.65L169.39 9.65L169.39 9.65Q168.60 9.65 168.14 10.22L168.14 10.22L168.14 10.22Q167.68 10.80 167.68 11.81L167.68 11.81L167.68 17.82L167.68 17.82Q167.68 18.00 167.50 18.00L167.50 18.00L166.91 18.00L166.91 18.00Q166.73 18.00 166.73 17.82L166.73 17.82L166.73 9.11L166.73 9.11Q166.73 8.93 166.91 8.93L166.91 8.93L167.50 8.93L167.50 8.93Q167.68 8.93 167.68 9.11L167.68 9.11L167.68 9.81L167.68 9.81Q167.68 9.86 167.72 9.86L167.72 9.86L167.72 9.86Q167.76 9.86 167.77 9.81L167.77 9.81L167.77 9.81Q168.42 8.80 169.68 8.80L169.68 8.80ZM180.38 13.63L180.38 13.63Q180.38 13.81 180.20 13.81L180.20 13.81L176.06 13.81L176.06 13.81Q175.99 13.81 175.99 13.88L175.99 13.88L175.99 15.41L175.99 15.41Q175.99 16.24 176.47 16.77L176.47 16.77L176.47 16.77Q176.95 17.30 177.70 17.30L177.70 17.30L177.70 17.30Q178.33 17.30 178.78 16.92L178.78 16.92L178.78 16.92Q179.23 16.54 179.38 15.93L179.38 15.93L179.38 15.93Q179.43 15.77 179.57 15.77L179.57 15.77L180.15 15.80L180.15 15.80Q180.22 15.80 180.28 15.84L180.28 15.84L180.28 15.84Q180.33 15.88 180.31 15.95L180.31 15.95L180.31 16.02L180.31 16.02Q180.13 17.01 179.45 17.58L179.45 17.58L179.45 17.58Q178.76 18.14 177.70 18.14L177.70 18.14L177.70 18.14Q176.51 18.14 175.78 17.40L175.78 17.40L175.78 17.40Q175.04 16.65 175.04 15.46L175.04 15.46L175.04 11.48L175.04 11.48Q175.04 10.30 175.78 9.54L175.78 9.54L175.78 9.54Q176.51 8.78 177.70 8.78L177.70 8.78L177.70 8.78Q178.91 8.78 179.65 9.54L179.65 9.54L179.65 9.54Q180.38 10.30 180.38 11.48L180.38 11.48L180.38 13.63ZM177.70 9.63L177.70 9.63Q176.95 9.63 176.47 10.16L176.47 10.16L176.47 10.16Q175.99 10.69 175.99 11.54L175.99 11.54L175.99 12.91L175.99 12.91Q175.99 12.98 176.06 12.98L176.06 12.98L179.36 12.98L179.36 12.98Q179.43 12.98 179.43 12.91L179.43 12.91L179.43 11.54L179.43 11.54Q179.43 10.69 178.95 10.16L178.95 10.16L178.95 10.16Q178.48 9.63 177.70 9.63L177.70 9.63ZM183.06 21.60L183.06 21.60Q182.95 21.60 182.95 21.42L182.95 21.42L182.95 20.95L182.95 20.95Q182.95 20.88 182.99 20.83L182.99 20.83L182.99 20.83Q183.02 20.77 183.06 20.77L183.06 20.77L183.15 20.77L183.15 20.77Q183.69 20.75 183.98 20.55L183.98 20.55L183.98 20.55Q184.28 20.34 184.48 19.78L184.48 19.78L184.48 19.78Q184.68 19.22 184.93 18.05L184.93 18.05L184.93 18.05Q184.95 18.02 184.94 17.99L184.94 17.99L184.94 17.99Q184.93 17.96 184.93 17.95L184.93 17.95L182.63 9.13L182.61 9.07L182.61 9.07Q182.61 8.93 182.79 8.93L182.79 8.93L183.42 8.93L183.42 8.93Q183.58 8.93 183.62 9.09L183.62 9.09L185.40 16.58L185.40 16.58Q185.42 16.63 185.43 16.63L185.43 16.63L185.43 16.63Q185.45 16.63 185.47 16.58L185.47 16.58L187.23 9.09L187.23 9.09Q187.27 8.93 187.43 8.93L187.43 8.93L188.08 8.95L188.08 8.95Q188.17 8.95 188.21 9.00L188.21 9.00L188.21 9.00Q188.26 9.05 188.22 9.14L188.22 9.14L185.69 18.92L185.69 18.92Q185.38 20.09 185.08 20.65L185.08 20.65L185.08 20.65Q184.79 21.20 184.36 21.40L184.36 21.40L184.36 21.40Q183.94 21.60 183.17 21.60L183.17 21.60L183.06 21.60Z" transform="rotate(0 94.44389188289642 13.430000305175781)"></path><defs id="SvgjsDefs1012"></defs></svg></g></svg>