<svg id="SvgjsSvg1006" width="396" height="113" xmlns="http://www.w3.org/2000/svg" version="1.1" xmlns:xlink="http://www.w3.org/1999/xlink" xmlns:svgjs="http://svgjs.com/svgjs" viewBox="0 0 396.90000915527344 113.13333129882812"><defs id="SvgjsDefs1007"></defs><g id="SvgjsG1009" transform="rotate(0 60 55.31666564941406)"><svg width="120" viewBox="0 0 72.21829223632812 66.57799530029297" xmlns="http://www.w3.org/2000/svg" version="1.1" xmlns:xlink="http://www.w3.org/1999/xlink" xmlns:svgjs="http://svgjs.com/svgjs" preserveAspectRatio="none" height="110.63333129882812" x="0" y="0"><g><svg data-color="1" xmlns="http://www.w3.org/2000/svg" xmlns:xlink="http://www.w3.org/1999/xlink" version="1.1" baseProfile="tiny" x="0px" y="0px" viewBox="10.660322189331055 17.26099967956543 72.21829223632812 66.57799530029297" overflow="inherit" xml:space="preserve" width="72.21829223632812" height="66.57799530029297" fill="#f49531"><path d="M46.769,20.261c0.547,0,1.095,0.181,1.513,0.542l12.837,11.105c0.306,0.264,0.59,0.39,0.827,0.39  c0.413,0,0.686-0.381,0.686-1.082v-2.679c0-1.104,0.896-2,2-2h4.995c1.104,0,2,0.896,2,2v10.46c0,1.104,0.677,2.586,1.513,3.309  l6.235,5.394c0.836,0.723,0.617,1.309-0.487,1.309h-5.261c-1.104,0-2,0.793-2,1.771s0,1.771,0,1.771v26.289c0,1.104-0.896,2-2,2  H23.912c-1.104,0-2-0.896-2-2v-27.83c0-1.104-0.896-2-2-2h-5.261c-1.104,0-1.323-0.586-0.487-1.309l31.093-26.897  C45.674,20.441,46.222,20.261,46.769,20.261 M46.769,17.261c-1.291,0-2.525,0.452-3.475,1.272L12.201,45.432  c-2.044,1.767-1.537,3.692-1.333,4.24c0.204,0.549,1.08,2.337,3.783,2.337h4.261v26.83c0,2.757,2.243,5,5,5h45.715  c2.757,0,5-2.243,5-5V52.55v-0.541h4.261c2.703,0,3.579-1.788,3.783-2.337c0.204-0.548,0.711-2.474-1.334-4.241l-6.234-5.394  c-0.19-0.18-0.464-0.779-0.476-1.046V28.537c0-2.757-2.243-5-5-5h-4.995c-2.182,0-4.042,1.405-4.723,3.357l-9.664-8.36  C49.294,17.713,48.06,17.261,46.769,17.261L46.769,17.261z"></path></svg></g><defs id="SvgjsDefs1008"></defs></svg></g><g id="SvgjsG1011" transform="rotate(0 265.44166564941406 55.31666564941406)"><svg xmlns="http://www.w3.org/2000/svg" xmlns:xlink="http://www.w3.org/1999/xlink" width="262.8833312988281" viewBox="1.399999976158142 12 262.8800048828125 36.36000061035156" overflow="visible" style="overflow: visible;" transform="" version="1.1" xmlns:svgjs="http://svgjs.com/svgjs" preserveAspectRatio="none" height="36.366668701171875" x="134" y="37.133331298828125" fill="#000000" stroke="none"><path stroke="none" fill="#2c365d" d="M11.32 12.48L11.32 12.48Q11.32 12.28 11.46 12.14L11.46 12.14L11.46 12.14Q11.60 12 11.80 12L11.80 12L17.48 12L17.48 12Q17.68 12 17.82 12.14L17.82 12.14L17.82 12.14Q17.96 12.28 17.96 12.48L17.96 12.48L17.96 39.52L17.96 39.52Q17.96 39.72 17.82 39.86L17.82 39.86L17.82 39.86Q17.68 40 17.48 40L17.48 40L11.80 40L11.80 40Q11.60 40 11.46 39.86L11.46 39.86L11.46 39.86Q11.32 39.72 11.32 39.52L11.32 39.52L11.32 29.04L11.32 29.04Q11.32 28.84 11.12 28.84L11.12 28.84L8.24 28.84L8.24 28.84Q8.04 28.84 8.04 29.04L8.04 29.04L8.04 39.52L8.04 39.52Q8.04 39.72 7.90 39.86L7.90 39.86L7.90 39.86Q7.76 40 7.56 40L7.56 40L1.88 40L1.88 40Q1.68 40 1.54 39.86L1.54 39.86L1.54 39.86Q1.40 39.72 1.40 39.52L1.40 39.52L1.40 12.48L1.40 12.48Q1.40 12.28 1.54 12.14L1.54 12.14L1.54 12.14Q1.68 12 1.88 12L1.88 12L7.56 12L7.56 12Q7.76 12 7.90 12.14L7.90 12.14L7.90 12.14Q8.04 12.28 8.04 12.48L8.04 12.48L8.04 22.92L8.04 22.92Q8.04 23.12 8.24 23.12L8.24 23.12L11.12 23.12L11.12 23.12Q11.32 23.12 11.32 22.92L11.32 22.92L11.32 12.48ZM28.40 40.32L28.40 40.32Q24.52 40.32 22.40 38.50L22.40 38.50L22.40 38.50Q20.28 36.68 20.28 33.40L20.28 33.40L20.28 25.92L20.28 25.92Q20.28 22.76 22.44 20.88L22.44 20.88L22.44 20.88Q24.60 19 28.40 19L28.40 19L28.40 19Q32.20 19 34.32 20.88L34.32 20.88L34.32 20.88Q36.44 22.76 36.44 25.92L36.44 25.92L36.44 33.40L36.44 33.40Q36.44 36.68 34.34 38.50L34.34 38.50L34.34 38.50Q32.24 40.32 28.40 40.32L28.40 40.32ZM28.40 34.60L28.40 34.60Q29.04 34.60 29.42 34.12L29.42 34.12L29.42 34.12Q29.80 33.64 29.80 32.88L29.80 32.88L29.80 26.44L29.80 26.44Q29.80 25.64 29.42 25.16L29.42 25.16L29.42 25.16Q29.04 24.68 28.40 24.68L28.40 24.68L28.40 24.68Q27.76 24.68 27.34 25.16L27.34 25.16L27.34 25.16Q26.92 25.64 26.92 26.44L26.92 26.44L26.92 32.88L26.92 32.88Q26.92 33.64 27.32 34.12L27.32 34.12L27.32 34.12Q27.72 34.60 28.40 34.60L28.40 34.60ZM47.80 19.80L47.80 19.80Q47.80 19.60 47.94 19.46L47.94 19.46L47.94 19.46Q48.08 19.32 48.28 19.32L48.28 19.32L53.96 19.32L53.96 19.32Q54.16 19.32 54.30 19.46L54.30 19.46L54.30 19.46Q54.44 19.60 54.44 19.80L54.44 19.80L54.44 39.52L54.44 39.52Q54.44 39.72 54.30 39.86L54.30 39.86L54.30 39.86Q54.16 40 53.96 40L53.96 40L48.28 40L48.28 40Q48.08 40 47.94 39.86L47.94 39.86L47.94 39.86Q47.80 39.72 47.80 39.52L47.80 39.52L47.80 39L47.80 39Q47.80 38.88 47.72 38.86L47.72 38.86L47.72 38.86Q47.64 38.84 47.56 38.96L47.56 38.96L47.56 38.96Q46.96 39.72 46.10 40.02L46.10 40.02L46.10 40.02Q45.24 40.32 44.08 40.32L44.08 40.32L44.08 40.32Q41.68 40.32 40.08 38.84L40.08 38.84L40.08 38.84Q38.48 37.36 38.48 34.28L38.48 34.28L38.48 19.80L38.48 19.80Q38.48 19.60 38.62 19.46L38.62 19.46L38.62 19.46Q38.76 19.32 38.96 19.32L38.96 19.32L44.64 19.32L44.64 19.32Q44.84 19.32 44.98 19.46L44.98 19.46L44.98 19.46Q45.12 19.60 45.12 19.80L45.12 19.80L45.12 32.80L45.12 32.80Q45.12 34.60 46.40 34.60L46.40 34.60L46.40 34.60Q47.08 34.60 47.44 34.12L47.44 34.12L47.44 34.12Q47.80 33.64 47.80 32.76L47.80 32.76L47.80 19.80ZM64.28 40.32L64.28 40.32Q60.64 40.32 58.48 38.58L58.48 38.58L58.48 38.58Q56.32 36.84 56.32 34L56.32 34L56.32 33.76L56.32 33.76Q56.32 33.56 56.46 33.42L56.46 33.42L56.46 33.42Q56.60 33.28 56.80 33.28L56.80 33.28L62.16 33.28L62.16 33.28Q62.36 33.28 62.50 33.36L62.50 33.36L62.50 33.36Q62.64 33.44 62.64 33.56L62.64 33.56L62.64 33.84L62.64 33.84Q62.64 34.56 63.14 34.98L63.14 34.98L63.14 34.98Q63.64 35.40 64.24 35.40L64.24 35.40L64.24 35.40Q64.80 35.40 65.12 35.06L65.12 35.06L65.12 35.06Q65.44 34.72 65.44 34.20L65.44 34.20L65.44 34.20Q65.44 33.48 64.76 33.10L64.76 33.10L64.76 33.10Q64.08 32.72 62.60 32.24L62.60 32.24L61.72 31.96L61.72 31.96Q56.56 30.20 56.56 25.56L56.56 25.56L56.56 25.56Q56.56 22.52 58.60 20.76L58.60 20.76L58.60 20.76Q60.64 19 64.04 19L64.04 19L64.04 19Q67.52 19 69.60 20.90L69.60 20.90L69.60 20.90Q71.68 22.80 71.68 25.92L71.68 25.92L71.68 25.92Q71.68 26.36 71.20 26.36L71.20 26.36L66.00 26.36L66.00 26.36Q65.80 26.36 65.66 26.24L65.66 26.24L65.66 26.24Q65.52 26.12 65.52 25.96L65.52 25.96L65.52 25.56L65.52 25.56Q65.52 24.92 65.16 24.54L65.16 24.54L65.16 24.54Q64.80 24.16 64.20 24.16L64.20 24.16L64.20 24.16Q63.60 24.16 63.26 24.58L63.26 24.58L63.26 24.58Q62.92 25 62.92 25.56L62.92 25.56L62.92 25.56Q62.92 26.44 63.72 26.92L63.72 26.92L63.72 26.92Q64.52 27.40 65.96 27.88L65.96 27.88L65.96 27.88Q67.72 28.48 69.00 29.14L69.00 29.14L69.00 29.14Q70.28 29.80 71.20 31.02L71.20 31.02L71.20 31.02Q72.12 32.24 72.12 34.12L72.12 34.12L72.12 34.12Q72.12 37 69.98 38.66L69.98 38.66L69.98 38.66Q67.84 40.32 64.28 40.32L64.28 40.32ZM89.64 31.12L89.64 31.12Q89.64 31.32 89.50 31.46L89.50 31.46L89.50 31.46Q89.36 31.60 89.16 31.60L89.16 31.60L80.44 31.60L80.44 31.60Q80.24 31.60 80.24 31.80L80.24 31.80L80.24 32.88L80.24 32.88Q80.24 33.68 80.62 34.16L80.62 34.16L80.62 34.16Q81.00 34.64 81.64 34.64L81.64 34.64L81.64 34.64Q82.20 34.64 82.56 34.24L82.56 34.24L82.56 34.24Q82.92 33.84 83.04 33.24L83.04 33.24L83.04 33.24Q83.12 32.72 83.56 32.80L83.56 32.80L89.12 33.52L89.12 33.52Q89.56 33.60 89.52 34.04L89.52 34.04L89.52 34.04Q89.32 37.04 87.32 38.68L87.32 38.68L87.32 38.68Q85.32 40.32 81.64 40.32L81.64 40.32L81.64 40.32Q77.84 40.32 75.72 38.50L75.72 38.50L75.72 38.50Q73.60 36.68 73.60 33.40L73.60 33.40L73.60 25.92L73.60 25.92Q73.60 22.80 75.74 20.90L75.74 20.90L75.74 20.90Q77.88 19 81.64 19L81.64 19L81.64 19Q85.40 19 87.52 20.88L87.52 20.88L87.52 20.88Q89.64 22.76 89.64 25.92L89.64 25.92L89.64 31.12ZM81.64 24.68L81.64 24.68Q81.00 24.68 80.62 25.16L80.62 25.16L80.62 25.16Q80.24 25.64 80.24 26.44L80.24 26.44L80.24 27.40L80.24 27.40Q80.24 27.60 80.44 27.60L80.44 27.60L82.80 27.60L82.80 27.60Q83.00 27.60 83.00 27.40L83.00 27.40L83.00 26.44L83.00 26.44Q83.00 25.68 82.62 25.18L82.62 25.18L82.62 25.18Q82.24 24.68 81.64 24.68L81.64 24.68ZM102.04 19L102.04 19Q104.88 19 106.24 20.84L106.24 20.84L106.24 20.84Q107.60 22.68 107.60 26.04L107.60 26.04L107.60 39.52L107.60 39.52Q107.60 39.72 107.46 39.86L107.46 39.86L107.46 39.86Q107.32 40 107.12 40L107.12 40L101.44 40L101.44 40Q101.24 40 101.10 39.86L101.10 39.86L101.10 39.86Q100.96 39.72 100.96 39.52L100.96 39.52L100.96 26.48L100.96 26.48Q100.96 24.68 99.68 24.68L99.68 24.68L99.68 24.68Q99.00 24.68 98.64 25.16L98.64 25.16L98.64 25.16Q98.28 25.64 98.28 26.52L98.28 26.52L98.28 39.52L98.28 39.52Q98.28 39.72 98.14 39.86L98.14 39.86L98.14 39.86Q98.00 40 97.80 40L97.80 40L92.12 40L92.12 40Q91.92 40 91.78 39.86L91.78 39.86L91.78 39.86Q91.64 39.72 91.64 39.52L91.64 39.52L91.64 12.48L91.64 12.48Q91.64 12.28 91.78 12.14L91.78 12.14L91.78 12.14Q91.92 12 92.12 12L92.12 12L97.80 12L97.80 12Q98.00 12 98.14 12.14L98.14 12.14L98.14 12.14Q98.28 12.28 98.28 12.48L98.28 12.48L98.28 20.60L98.28 20.60Q98.28 20.68 98.36 20.68L98.36 20.68L98.36 20.68Q98.52 20.68 98.68 20.44L98.68 20.44L98.68 20.44Q99.88 19 102.04 19L102.04 19ZM117.76 40.32L117.76 40.32Q113.88 40.32 111.76 38.50L111.76 38.50L111.76 38.50Q109.64 36.68 109.64 33.40L109.64 33.40L109.64 25.92L109.64 25.92Q109.64 22.76 111.80 20.88L111.80 20.88L111.80 20.88Q113.96 19 117.76 19L117.76 19L117.76 19Q121.56 19 123.68 20.88L123.68 20.88L123.68 20.88Q125.80 22.76 125.80 25.92L125.80 25.92L125.80 33.40L125.80 33.40Q125.80 36.68 123.70 38.50L123.70 38.50L123.70 38.50Q121.60 40.32 117.76 40.32L117.76 40.32ZM117.76 34.60L117.76 34.60Q118.40 34.60 118.78 34.12L118.78 34.12L118.78 34.12Q119.16 33.64 119.16 32.88L119.16 32.88L119.16 26.44L119.16 26.44Q119.16 25.64 118.78 25.16L118.78 25.16L118.78 25.16Q118.40 24.68 117.76 24.68L117.76 24.68L117.76 24.68Q117.12 24.68 116.70 25.16L116.70 25.16L116.70 25.16Q116.28 25.64 116.28 26.44L116.28 26.44L116.28 32.88L116.28 32.88Q116.28 33.64 116.68 34.12L116.68 34.12L116.68 34.12Q117.08 34.60 117.76 34.60L117.76 34.60ZM128.32 40L128.32 40Q128.12 40 127.98 39.86L127.98 39.86L127.98 39.86Q127.84 39.72 127.84 39.52L127.84 39.52L127.84 12.48L127.84 12.48Q127.84 12.28 127.98 12.14L127.98 12.14L127.98 12.14Q128.12 12 128.32 12L128.32 12L134.00 12L134.00 12Q134.20 12 134.34 12.14L134.34 12.14L134.34 12.14Q134.48 12.28 134.48 12.48L134.48 12.48L134.48 39.52L134.48 39.52Q134.48 39.72 134.34 39.86L134.34 39.86L134.34 39.86Q134.20 40 134.00 40L134.00 40L128.32 40ZM145.84 12.48L145.84 12.48Q145.84 12.28 145.98 12.14L145.98 12.14L145.98 12.14Q146.12 12 146.32 12L146.32 12L152 12L152 12Q152.20 12 152.34 12.14L152.34 12.14L152.34 12.14Q152.48 12.28 152.48 12.48L152.48 12.48L152.48 39.52L152.48 39.52Q152.48 39.72 152.34 39.86L152.34 39.86L152.34 39.86Q152.20 40 152 40L152 40L146.32 40L146.32 40Q146.12 40 145.98 39.86L145.98 39.86L145.98 39.86Q145.84 39.72 145.84 39.52L145.84 39.52L145.84 38.72L145.84 38.72Q145.84 38.60 145.76 38.58L145.76 38.58L145.76 38.58Q145.68 38.56 145.60 38.64L145.60 38.64L145.60 38.64Q144.28 40.32 141.96 40.32L141.96 40.32L141.96 40.32Q136.48 40.32 136.48 33.40L136.48 33.40L136.48 25.92L136.48 25.92Q136.48 19 141.96 19L141.96 19L141.96 19Q144.28 19 145.60 20.76L145.60 20.76L145.60 20.76Q145.68 20.88 145.76 20.86L145.76 20.86L145.76 20.86Q145.84 20.84 145.84 20.72L145.84 20.72L145.84 12.48ZM144.44 34.64L144.44 34.64Q145.08 34.64 145.46 34.16L145.46 34.16L145.46 34.16Q145.84 33.68 145.84 32.88L145.84 32.88L145.84 26.44L145.84 26.44Q145.84 25.64 145.46 25.16L145.46 25.16L145.46 25.16Q145.08 24.68 144.44 24.68L144.44 24.68L144.44 24.68Q143.84 24.68 143.48 25.16L143.48 25.16L143.48 25.16Q143.12 25.64 143.12 26.44L143.12 26.44L143.12 32.88L143.12 32.88Q143.12 33.68 143.48 34.16L143.48 34.16L143.48 34.16Q143.84 34.64 144.44 34.64L144.44 34.64ZM179.96 32.20L179.96 32.20Q179.96 35.96 177.60 37.98L177.60 37.98L177.60 37.98Q175.24 40 171.60 40L171.60 40L163.52 40L163.52 40Q163.32 40 163.18 39.86L163.18 39.86L163.18 39.86Q163.04 39.72 163.04 39.52L163.04 39.52L163.04 12.48L163.04 12.48Q163.04 12.28 163.18 12.14L163.18 12.14L163.18 12.14Q163.32 12 163.52 12L163.52 12L170.56 12L170.56 12Q174.72 12 177.10 13.94L177.10 13.94L177.10 13.94Q179.48 15.88 179.48 19.76L179.48 19.76L179.48 19.76Q179.48 23.60 176.96 25.40L176.96 25.40L176.96 25.40Q176.76 25.52 176.92 25.64L176.92 25.64L176.92 25.64Q179.96 27.88 179.96 32.20L179.96 32.20ZM169.88 17.68L169.88 17.68Q169.68 17.68 169.68 17.88L169.68 17.88L169.68 23L169.68 23Q169.68 23.20 169.88 23.20L169.88 23.20L170.64 23.20L170.64 23.20Q171.76 23.20 172.36 22.50L172.36 22.50L172.36 22.50Q172.96 21.80 172.96 20.48L172.96 20.48L172.96 20.48Q172.96 19.12 172.36 18.40L172.36 18.40L172.36 18.40Q171.76 17.68 170.64 17.68L170.64 17.68L169.88 17.68ZM171.08 34.28L171.08 34.28Q172.12 34.28 172.72 33.48L172.72 33.48L172.72 33.48Q173.32 32.68 173.32 31.20L173.32 31.20L173.32 31.20Q173.32 29.72 172.72 28.84L172.72 28.84L172.72 28.84Q172.12 27.96 171.12 27.96L171.12 27.96L169.88 27.96L169.88 27.96Q169.68 27.96 169.68 28.16L169.68 28.16L169.68 34.08L169.68 34.08Q169.68 34.28 169.88 34.28L169.88 34.28L171.08 34.28ZM191.12 19.80L191.12 19.80Q191.12 19.60 191.26 19.46L191.26 19.46L191.26 19.46Q191.40 19.32 191.60 19.32L191.60 19.32L197.28 19.32L197.28 19.32Q197.48 19.32 197.62 19.46L197.62 19.46L197.62 19.46Q197.76 19.60 197.76 19.80L197.76 19.80L197.76 39.52L197.76 39.52Q197.76 39.72 197.62 39.86L197.62 39.86L197.62 39.86Q197.48 40 197.28 40L197.28 40L191.60 40L191.60 40Q191.40 40 191.26 39.86L191.26 39.86L191.26 39.86Q191.12 39.72 191.12 39.52L191.12 39.52L191.12 39L191.12 39Q191.12 38.88 191.04 38.86L191.04 38.86L191.04 38.86Q190.96 38.84 190.88 38.96L190.88 38.96L190.88 38.96Q190.28 39.72 189.42 40.02L189.42 40.02L189.42 40.02Q188.56 40.32 187.40 40.32L187.40 40.32L187.40 40.32Q185.00 40.32 183.40 38.84L183.40 38.84L183.40 38.84Q181.80 37.36 181.80 34.28L181.80 34.28L181.80 19.80L181.80 19.80Q181.80 19.60 181.94 19.46L181.94 19.46L181.94 19.46Q182.08 19.32 182.28 19.32L182.28 19.32L187.96 19.32L187.96 19.32Q188.16 19.32 188.30 19.46L188.30 19.46L188.30 19.46Q188.44 19.60 188.44 19.80L188.44 19.80L188.44 32.80L188.44 32.80Q188.44 34.60 189.72 34.60L189.72 34.60L189.72 34.60Q190.40 34.60 190.76 34.12L190.76 34.12L190.76 34.12Q191.12 33.64 191.12 32.76L191.12 32.76L191.12 19.80ZM209.24 12.48L209.24 12.48Q209.24 12.28 209.38 12.14L209.38 12.14L209.38 12.14Q209.52 12 209.72 12L209.72 12L215.40 12L215.40 12Q215.60 12 215.74 12.14L215.74 12.14L215.74 12.14Q215.88 12.28 215.88 12.48L215.88 12.48L215.88 39.52L215.88 39.52Q215.88 39.72 215.74 39.86L215.74 39.86L215.74 39.86Q215.60 40 215.40 40L215.40 40L209.72 40L209.72 40Q209.52 40 209.38 39.86L209.38 39.86L209.38 39.86Q209.24 39.72 209.24 39.52L209.24 39.52L209.24 38.72L209.24 38.72Q209.24 38.60 209.16 38.58L209.16 38.58L209.16 38.58Q209.08 38.56 209.00 38.64L209.00 38.64L209.00 38.64Q207.68 40.32 205.36 40.32L205.36 40.32L205.36 40.32Q199.88 40.32 199.88 33.40L199.88 33.40L199.88 25.92L199.88 25.92Q199.88 19 205.36 19L205.36 19L205.36 19Q207.68 19 209.00 20.76L209.00 20.76L209.00 20.76Q209.08 20.88 209.16 20.86L209.16 20.86L209.16 20.86Q209.24 20.84 209.24 20.72L209.24 20.72L209.24 12.48ZM207.84 34.64L207.84 34.64Q208.48 34.64 208.86 34.16L208.86 34.16L208.86 34.16Q209.24 33.68 209.24 32.88L209.24 32.88L209.24 26.44L209.24 26.44Q209.24 25.64 208.86 25.16L208.86 25.16L208.86 25.16Q208.48 24.68 207.84 24.68L207.84 24.68L207.84 24.68Q207.24 24.68 206.88 25.16L206.88 25.16L206.88 25.16Q206.52 25.64 206.52 26.44L206.52 26.44L206.52 32.88L206.52 32.88Q206.52 33.68 206.88 34.16L206.88 34.16L206.88 34.16Q207.24 34.64 207.84 34.64L207.84 34.64ZM227.36 19.80L227.36 19.80Q227.36 19.60 227.50 19.46L227.50 19.46L227.50 19.46Q227.64 19.32 227.84 19.32L227.84 19.32L233.52 19.32L233.52 19.32Q233.72 19.32 233.86 19.46L233.86 19.46L233.86 19.46Q234.00 19.60 234.00 19.80L234.00 19.80L234.00 38.80L234.00 38.80Q234.00 41.76 233.16 43.84L233.16 43.84L233.16 43.84Q232.32 45.92 230.10 47.14L230.10 47.14L230.10 47.14Q227.88 48.36 223.88 48.36L223.88 48.36L223.88 48.36Q223.24 48.36 221.72 48.28L221.72 48.28L221.72 48.28Q221.24 48.24 221.24 47.76L221.24 47.76L221.24 43L221.24 43Q221.24 42.48 221.76 42.56L221.76 42.56L222.68 42.60L222.68 42.60Q224.60 42.60 225.60 42.14L225.60 42.14L225.60 42.14Q226.60 41.68 226.96 40.86L226.96 40.86L226.96 40.86Q227.32 40.04 227.36 38.72L227.36 38.72L227.36 38.72Q227.36 38.56 227.26 38.54L227.26 38.54L227.26 38.54Q227.16 38.52 227.08 38.64L227.08 38.64L227.08 38.64Q225.84 40.24 223.48 40.24L223.48 40.24L223.48 40.24Q220.68 40.24 219.34 38.44L219.34 38.44L219.34 38.44Q218.00 36.64 218.00 33.32L218.00 33.32L218.00 25.92L218.00 25.92Q218.00 19 223.48 19L223.48 19L223.48 19Q225.92 19 227.12 20.80L227.12 20.80L227.12 20.80Q227.20 20.92 227.28 20.90L227.28 20.90L227.28 20.90Q227.36 20.88 227.36 20.76L227.36 20.76L227.36 19.80ZM225.96 34.52L225.96 34.52Q226.60 34.52 226.98 34.04L226.98 34.04L226.98 34.04Q227.36 33.56 227.36 32.80L227.36 32.80L227.36 26.44L227.36 26.44Q227.36 25.64 226.98 25.16L226.98 25.16L226.98 25.16Q226.60 24.68 225.96 24.68L225.96 24.68L225.96 24.68Q225.36 24.68 225.00 25.16L225.00 25.16L225.00 25.16Q224.64 25.64 224.64 26.44L224.64 26.44L224.64 32.80L224.64 32.80Q224.64 33.60 225.00 34.06L225.00 34.06L225.00 34.06Q225.36 34.52 225.96 34.52L225.96 34.52ZM252.08 31.12L252.08 31.12Q252.08 31.32 251.94 31.46L251.94 31.46L251.94 31.46Q251.80 31.60 251.60 31.60L251.60 31.60L242.88 31.60L242.88 31.60Q242.68 31.60 242.68 31.80L242.68 31.80L242.68 32.88L242.68 32.88Q242.68 33.68 243.06 34.16L243.06 34.16L243.06 34.16Q243.44 34.64 244.08 34.64L244.08 34.64L244.08 34.64Q244.64 34.64 245 34.24L245 34.24L245 34.24Q245.36 33.84 245.48 33.24L245.48 33.24L245.48 33.24Q245.56 32.72 246 32.80L246 32.80L251.56 33.52L251.56 33.52Q252 33.60 251.96 34.04L251.96 34.04L251.96 34.04Q251.76 37.04 249.76 38.68L249.76 38.68L249.76 38.68Q247.76 40.32 244.08 40.32L244.08 40.32L244.08 40.32Q240.28 40.32 238.16 38.50L238.16 38.50L238.16 38.50Q236.04 36.68 236.04 33.40L236.04 33.40L236.04 25.92L236.04 25.92Q236.04 22.80 238.18 20.90L238.18 20.90L238.18 20.90Q240.32 19 244.08 19L244.08 19L244.08 19Q247.84 19 249.96 20.88L249.96 20.88L249.96 20.88Q252.08 22.76 252.08 25.92L252.08 25.92L252.08 31.12ZM244.08 24.68L244.08 24.68Q243.44 24.68 243.06 25.16L243.06 25.16L243.06 25.16Q242.68 25.64 242.68 26.44L242.68 26.44L242.68 27.40L242.68 27.40Q242.68 27.60 242.88 27.60L242.88 27.60L245.24 27.60L245.24 27.60Q245.44 27.60 245.44 27.40L245.44 27.40L245.44 26.44L245.44 26.44Q245.44 25.68 245.06 25.18L245.06 25.18L245.06 25.18Q244.68 24.68 244.08 24.68L244.08 24.68ZM264.28 23.44L264.28 23.44Q264.28 23.64 264.14 23.78L264.14 23.78L264.14 23.78Q264 23.92 263.80 23.92L263.80 23.92L261.76 23.92L261.76 23.92Q261.56 23.92 261.56 24.12L261.56 24.12L261.56 32.68L261.56 32.68Q261.56 33.60 261.94 33.96L261.94 33.96L261.94 33.96Q262.32 34.32 263.08 34.28L263.08 34.28L263.28 34.28L263.28 34.28Q263.48 34.28 263.62 34.42L263.62 34.42L263.62 34.42Q263.76 34.56 263.76 34.76L263.76 34.76L263.76 39.52L263.76 39.52Q263.76 39.72 263.62 39.86L263.62 39.86L263.62 39.86Q263.48 40 263.28 40L263.28 40L261.48 40L261.48 40Q258.36 40 256.78 39.04L256.78 39.04L256.78 39.04Q255.20 38.08 255.20 35.32L255.20 35.32L255.20 24.12L255.20 24.12Q255.20 23.92 255.00 23.92L255.00 23.92L253.72 23.92L253.72 23.92Q253.52 23.92 253.38 23.78L253.38 23.78L253.38 23.78Q253.24 23.64 253.24 23.44L253.24 23.44L253.24 19.80L253.24 19.80Q253.24 19.60 253.38 19.46L253.38 19.46L253.38 19.46Q253.52 19.32 253.72 19.32L253.72 19.32L255.00 19.32L255.00 19.32Q255.20 19.32 255.20 19.12L255.20 19.12L255.20 14.68L255.20 14.68Q255.20 14.48 255.34 14.34L255.34 14.34L255.34 14.34Q255.48 14.20 255.68 14.20L255.68 14.20L261.08 14.20L261.08 14.20Q261.28 14.20 261.42 14.34L261.42 14.34L261.42 14.34Q261.56 14.48 261.56 14.68L261.56 14.68L261.56 19.12L261.56 19.12Q261.56 19.32 261.76 19.32L261.76 19.32L263.80 19.32L263.80 19.32Q264 19.32 264.14 19.46L264.14 19.46L264.14 19.46Q264.28 19.60 264.28 19.80L264.28 19.80L264.28 23.44Z" transform="rotate(0 132.8400024175644 30.18000030517578)"></path><defs id="SvgjsDefs1010"></defs></svg></g></svg>